<mxfile host="app.diagrams.net" modified="2023-06-13T04:45:43.557Z" agent="Mozilla/5.0 (Windows NT 10.0; Win64; x64) AppleWebKit/537.36 (KHTML, like Gecko) Chrome/114.0.0.0 Safari/537.36 Edg/114.0.1823.43" version="21.3.8" etag="G_3kiBQUkIHVrIN2fpiQ" type="github">
  <diagram name="第 1 页" id="wBsfXp0m3zRJ9H8ULUkZ">
    <mxGraphModel>
      <root>
        <mxCell id="0" />
        <mxCell id="1" parent="0" />
      </root>
    </mxGraphModel>
  </diagram>
</mxfile>
